<?xml version="1.0" encoding="utf-8"?>
<!-- Generator: Adobe Illustrator 16.0.0, SVG Export Plug-In . SVG Version: 6.00 Build 0)  -->
<!DOCTYPE svg PUBLIC "-//W3C//DTD SVG 1.1//EN" "http://www.w3.org/Graphics/SVG/1.1/DTD/svg11.dtd">
<svg version="1.1" id="Layer_1" xmlns="http://www.w3.org/2000/svg" xmlns:xlink="http://www.w3.org/1999/xlink" x="0px" y="0px"
	 width="288px" height="146.067px" viewBox="0 0 288 146.067" enable-background="new 0 0 288 146.067" xml:space="preserve">
<rect fill="#FFFFFF" width="288" height="146.067"/>
<g>
	<path fill="none" stroke="#000000" stroke-width="2.6258" d="M54.521,78.979 M79.28,78.979"/>
	<polygon fill="none" stroke="#000000" points="5.946,44.979 5.946,75.913 51.869,75.913 51.869,44.979 5.946,44.979 	"/>
	<g>
		<path d="M28.79,54.246c0.71,0,1.343,0.191,1.899,0.573c0.556,0.382,0.988,0.933,1.297,1.65h0.127l0.776-1.992h1.471l-2.698,12.691
			h-1.541l0.301-2.42H30.33c-1.382,1.768-2.837,2.652-4.365,2.652c-1.073,0-1.915-0.382-2.524-1.146
			c-0.61-0.764-0.915-1.81-0.915-3.138c0-1.606,0.274-3.096,0.822-4.47c0.548-1.374,1.305-2.451,2.27-3.23
			S27.64,54.246,28.79,54.246z M26.59,65.791c0.749,0,1.494-0.357,2.235-1.071c0.741-0.714,1.343-1.644,1.807-2.791
			s0.695-2.295,0.695-3.445c0-0.795-0.216-1.428-0.648-1.899c-0.433-0.471-1-0.707-1.702-0.707c-0.803,0-1.55,0.332-2.241,0.996
			c-0.691,0.664-1.233,1.563-1.627,2.698c-0.394,1.135-0.591,2.332-0.591,3.589c0,0.88,0.181,1.539,0.544,1.975
			C25.424,65.572,25.934,65.791,26.59,65.791z"/>
	</g>
	<polygon fill="none" stroke="#000000" points="82.468,44.979 82.468,75.913 128.392,75.913 128.392,44.979 82.468,44.979 	"/>
	<g>
		<g>
			<path d="M101.558,54.858l1.111,1.146l-4.076,4.1l4.053,4.076l-1.112,1.146l-4.099-4.064l-4.03,4.064l-1.169-1.146l4.053-4.076
				l-4.076-4.076l1.158-1.169l4.087,4.111L101.558,54.858z"/>
		</g>
		<g>
			<path d="M117.205,68.476h-11.128V66.82l4.458-4.481c1.358-1.374,2.254-2.354,2.687-2.941c0.432-0.586,0.756-1.158,0.973-1.714
				c0.216-0.556,0.324-1.154,0.324-1.795c0-0.903-0.274-1.619-0.822-2.148c-0.548-0.529-1.309-0.793-2.281-0.793
				c-0.702,0-1.368,0.116-1.998,0.347c-0.629,0.231-1.33,0.652-2.102,1.262l-1.019-1.309c1.56-1.297,3.258-1.945,5.095-1.945
				c1.59,0,2.837,0.407,3.74,1.222s1.355,1.909,1.355,3.283c0,1.073-0.301,2.135-0.903,3.185s-1.729,2.378-3.381,3.983l-3.706,3.625
				v0.093h8.708V68.476z"/>
		</g>
	</g>
	<polygon fill="none" stroke="#000000" points="158.989,44.979 158.989,75.913 204.913,75.913 204.913,44.979 158.989,44.979 	"/>
	<g>
		<g>
			<path d="M174.754,59.316h4.771v1.598h-4.771v4.933h-1.609v-4.933h-4.748v-1.598h4.748V54.36h1.609V59.316z"/>
		</g>
		<g>
			<path d="M187.899,58.135c1.783,0,3.186,0.442,4.209,1.326c1.023,0.884,1.534,2.094,1.534,3.63c0,1.753-0.558,3.126-1.673,4.123
				c-1.115,0.996-2.653,1.494-4.614,1.494c-1.907,0-3.362-0.305-4.366-0.915v-1.853c0.541,0.348,1.212,0.62,2.015,0.816
				c0.803,0.197,1.594,0.295,2.374,0.295c1.359,0,2.415-0.32,3.167-0.961c0.753-0.641,1.129-1.567,1.129-2.779
				c0-2.362-1.448-3.543-4.343-3.543c-0.733,0-1.713,0.112-2.941,0.336l-0.996-0.637l0.637-7.92h8.418v1.771h-6.774l-0.428,5.084
				C186.135,58.224,187.019,58.135,187.899,58.135z"/>
		</g>
	</g>
	<polygon fill="none" stroke="#000000" points="235.511,44.979 235.511,75.913 281.434,75.913 281.434,44.979 235.511,44.979 	"/>
	<g>
		<path d="M256.634,68.476h-11.128V66.82l4.458-4.481c1.358-1.374,2.254-2.354,2.687-2.941c0.432-0.586,0.756-1.158,0.973-1.714
			c0.216-0.556,0.324-1.154,0.324-1.795c0-0.903-0.274-1.619-0.822-2.148c-0.548-0.529-1.309-0.793-2.281-0.793
			c-0.702,0-1.368,0.116-1.998,0.347c-0.629,0.231-1.33,0.652-2.102,1.262l-1.019-1.309c1.56-1.297,3.258-1.945,5.095-1.945
			c1.59,0,2.837,0.407,3.74,1.222s1.355,1.909,1.355,3.283c0,1.073-0.301,2.135-0.903,3.185s-1.729,2.378-3.381,3.983l-3.706,3.625
			v0.093h8.708V68.476z"/>
		<path d="M264.358,58.135c1.783,0,3.186,0.442,4.209,1.326c1.023,0.884,1.534,2.094,1.534,3.63c0,1.753-0.558,3.126-1.673,4.123
			c-1.115,0.996-2.653,1.494-4.614,1.494c-1.907,0-3.362-0.305-4.366-0.915v-1.853c0.541,0.348,1.212,0.62,2.015,0.816
			c0.803,0.197,1.594,0.295,2.374,0.295c1.359,0,2.415-0.32,3.167-0.961c0.753-0.641,1.129-1.567,1.129-2.779
			c0-2.362-1.448-3.543-4.343-3.543c-0.733,0-1.713,0.112-2.941,0.336l-0.996-0.637l0.637-7.92h8.418v1.771h-6.774l-0.428,5.084
			C262.594,58.224,263.478,58.135,264.358,58.135z"/>
	</g>
	<polygon points="56.048,62.292 73.808,62.292 73.808,65.333 78.289,60.445 73.808,55.558 73.808,58.491 56.048,58.545 
		56.048,62.292 	"/>
	<polygon points="132.57,62.292 150.331,62.292 150.331,65.333 154.81,60.445 150.331,55.558 150.331,58.491 132.57,58.545 
		132.57,62.292 	"/>
	<polygon points="209.092,62.292 226.852,62.292 226.852,65.333 231.333,60.445 226.852,55.558 226.852,58.491 209.092,58.545 
		209.092,62.292 	"/>
	<polygon fill="none" stroke="#000000" points="5.946,97.363 5.946,128.297 51.869,128.297 51.869,97.363 5.946,97.363 	"/>
	<g>
		<path d="M21.854,120.869h-1.876v-12.066c0-1.004,0.031-1.953,0.092-2.849c-0.162,0.162-0.343,0.332-0.544,0.509
			c-0.201,0.178-1.12,0.93-2.756,2.258l-1.019-1.32l4.481-3.462h1.622V120.869z"/>
		<path d="M39.513,112.381c0,2.926-0.461,5.11-1.384,6.554c-0.923,1.443-2.333,2.165-4.232,2.165c-1.822,0-3.208-0.739-4.157-2.217
			s-1.424-3.646-1.424-6.502c0-2.949,0.459-5.138,1.378-6.566c0.918-1.428,2.32-2.142,4.204-2.142c1.837,0,3.232,0.745,4.186,2.235
			C39.036,107.397,39.513,109.555,39.513,112.381z M30.261,112.381c0,2.462,0.29,4.255,0.869,5.378
			c0.579,1.124,1.501,1.685,2.768,1.685c1.281,0,2.209-0.569,2.785-1.708s0.863-2.924,0.863-5.355c0-2.432-0.288-4.213-0.863-5.344
			s-1.503-1.696-2.785-1.696c-1.266,0-2.188,0.558-2.768,1.673C30.55,108.129,30.261,109.918,30.261,112.381z"/>
	</g>
	<polygon fill="none" stroke="#000000" points="82.468,97.363 82.468,128.297 128.392,128.297 128.392,97.363 82.468,97.363 	"/>
	<g>
		<g>
			<path d="M91.877,113.307v-1.598h11.128v1.598H91.877z M96.127,108.467c0-0.463,0.114-0.812,0.342-1.048
				c0.228-0.236,0.55-0.354,0.967-0.354c0.401,0,0.714,0.122,0.938,0.365c0.224,0.243,0.336,0.589,0.336,1.037
				c0,0.44-0.114,0.784-0.342,1.03c-0.228,0.248-0.539,0.371-0.932,0.371c-0.401,0-0.72-0.122-0.956-0.365
				S96.127,108.915,96.127,108.467z M96.127,116.549c0-0.463,0.114-0.812,0.342-1.048c0.228-0.235,0.55-0.353,0.967-0.353
				c0.401,0,0.714,0.122,0.938,0.365c0.224,0.243,0.336,0.588,0.336,1.036c0,0.44-0.114,0.784-0.342,1.031
				c-0.228,0.247-0.539,0.371-0.932,0.371c-0.401,0-0.72-0.122-0.956-0.365S96.127,116.997,96.127,116.549z"/>
		</g>
		<g>
			<path d="M117.205,120.869h-11.128v-1.656l4.458-4.481c1.358-1.374,2.254-2.354,2.687-2.941c0.432-0.586,0.756-1.158,0.973-1.714
				c0.216-0.556,0.324-1.154,0.324-1.795c0-0.903-0.274-1.619-0.822-2.148c-0.548-0.529-1.309-0.793-2.281-0.793
				c-0.702,0-1.368,0.116-1.998,0.347c-0.629,0.231-1.33,0.652-2.102,1.262l-1.019-1.309c1.56-1.297,3.258-1.945,5.095-1.945
				c1.59,0,2.837,0.407,3.74,1.222s1.355,1.909,1.355,3.283c0,1.073-0.301,2.135-0.903,3.185s-1.729,2.378-3.381,3.983l-3.706,3.625
				v0.093h8.708V120.869z"/>
		</g>
	</g>
	<polygon fill="none" stroke="#000000" points="158.989,97.363 158.989,128.297 204.913,128.297 204.913,97.363 158.989,97.363 	"/>
	<g>
		<g>
			<path d="M168.397,113.307v-1.598h11.128v1.598H168.397z"/>
		</g>
		<g>
			<path d="M187.899,110.528c1.783,0,3.186,0.442,4.209,1.326c1.023,0.884,1.534,2.094,1.534,3.63c0,1.753-0.558,3.126-1.673,4.123
				c-1.115,0.996-2.653,1.494-4.614,1.494c-1.907,0-3.362-0.305-4.366-0.915v-1.853c0.541,0.348,1.212,0.62,2.015,0.816
				c0.803,0.197,1.594,0.295,2.374,0.295c1.359,0,2.415-0.32,3.167-0.961c0.753-0.641,1.129-1.567,1.129-2.779
				c0-2.362-1.448-3.543-4.343-3.543c-0.733,0-1.713,0.112-2.941,0.336l-0.996-0.637l0.637-7.92h8.418v1.771h-6.774l-0.428,5.084
				C186.135,110.617,187.019,110.528,187.899,110.528z"/>
		</g>
	</g>
	<polygon fill="none" stroke="#000000" points="235.511,97.363 235.511,128.297 281.434,128.297 281.434,97.363 235.511,97.363 	"/>
	<g>
		<path d="M256.634,120.869h-11.128v-1.656l4.458-4.481c1.358-1.374,2.254-2.354,2.687-2.941c0.432-0.586,0.756-1.158,0.973-1.714
			c0.216-0.556,0.324-1.154,0.324-1.795c0-0.903-0.274-1.619-0.822-2.148c-0.548-0.529-1.309-0.793-2.281-0.793
			c-0.702,0-1.368,0.116-1.998,0.347c-0.629,0.231-1.33,0.652-2.102,1.262l-1.019-1.309c1.56-1.297,3.258-1.945,5.095-1.945
			c1.59,0,2.837,0.407,3.74,1.222s1.355,1.909,1.355,3.283c0,1.073-0.301,2.135-0.903,3.185s-1.729,2.378-3.381,3.983l-3.706,3.625
			v0.093h8.708V120.869z"/>
		<path d="M264.358,110.528c1.783,0,3.186,0.442,4.209,1.326c1.023,0.884,1.534,2.094,1.534,3.63c0,1.753-0.558,3.126-1.673,4.123
			c-1.115,0.996-2.653,1.494-4.614,1.494c-1.907,0-3.362-0.305-4.366-0.915v-1.853c0.541,0.348,1.212,0.62,2.015,0.816
			c0.803,0.197,1.594,0.295,2.374,0.295c1.359,0,2.415-0.32,3.167-0.961c0.753-0.641,1.129-1.567,1.129-2.779
			c0-2.362-1.448-3.543-4.343-3.543c-0.733,0-1.713,0.112-2.941,0.336l-0.996-0.637l0.637-7.92h8.418v1.771h-6.774l-0.428,5.084
			C262.594,110.617,263.478,110.528,264.358,110.528z"/>
	</g>
	<polygon points="78.289,114.676 60.53,114.676 60.53,117.719 56.048,112.83 60.53,107.942 60.53,110.875 78.289,110.929 
		78.289,114.676 	"/>
	<polygon points="154.81,114.676 137.052,114.676 137.052,117.719 132.57,112.83 137.052,107.942 137.052,110.875 154.81,110.929 
		154.81,114.676 	"/>
	<polygon points="231.333,114.676 213.574,114.676 213.574,117.719 209.092,112.83 213.574,107.942 213.574,110.875 
		231.333,110.929 231.333,114.676 	"/>
	<g>
		<path d="M8.843,32.016H6.951V20.34h6.589v1.613H8.843v3.65h4.4v1.621h-4.4V32.016z"/>
		<path d="M17.333,32.016h-1.877V19.589h1.877V32.016z"/>
		<path d="M27.851,27.583c0,1.443-0.37,2.569-1.11,3.378c-0.74,0.81-1.771,1.214-3.091,1.214c-0.825,0-1.555-0.186-2.188-0.559
			c-0.633-0.373-1.121-0.908-1.461-1.605c-0.341-0.698-0.511-1.507-0.511-2.428c0-1.432,0.368-2.55,1.102-3.354
			c0.735-0.804,1.771-1.206,3.107-1.206c1.278,0,2.29,0.411,3.035,1.234C27.478,25.08,27.851,26.189,27.851,27.583z M21.422,27.583
			c0,2.04,0.753,3.059,2.26,3.059c1.491,0,2.236-1.02,2.236-3.059c0-2.018-0.75-3.027-2.252-3.027c-0.788,0-1.359,0.261-1.713,0.783
			C21.599,25.861,21.422,26.609,21.422,27.583z"/>
		<path d="M37.251,32.016l-1.142-4.121c-0.139-0.437-0.389-1.451-0.751-3.042h-0.072c-0.309,1.438-0.554,2.457-0.734,3.059
			l-1.174,4.105h-2.076l-2.476-8.833h1.917l1.126,4.353c0.255,1.076,0.437,1.997,0.543,2.763h0.048
			c0.053-0.388,0.134-0.834,0.244-1.337c0.109-0.503,0.204-0.88,0.284-1.13l1.342-4.648h2.06l1.302,4.648
			c0.08,0.261,0.18,0.661,0.3,1.198c0.12,0.538,0.19,0.956,0.211,1.254h0.064c0.08-0.655,0.266-1.571,0.559-2.748l1.142-4.353h1.885
			l-2.492,8.833H37.251z"/>
		<path d="M51.179,32.176c-1.336,0-2.352-0.39-3.047-1.17s-1.042-1.899-1.042-3.358c0-1.485,0.364-2.627,1.09-3.426
			c0.727-0.798,1.777-1.198,3.15-1.198c0.932,0,1.771,0.173,2.516,0.519l-0.567,1.509c-0.793-0.309-1.448-0.463-1.964-0.463
			c-1.528,0-2.292,1.014-2.292,3.042c0,0.991,0.19,1.735,0.571,2.232c0.38,0.498,0.938,0.747,1.673,0.747
			c0.835,0,1.626-0.208,2.372-0.623v1.637c-0.335,0.197-0.693,0.338-1.074,0.423C52.184,32.133,51.722,32.176,51.179,32.176z"/>
		<path d="M63.486,32.016h-1.885v-5.431c0-0.682-0.137-1.19-0.411-1.525c-0.274-0.335-0.709-0.503-1.306-0.503
			c-0.788,0-1.367,0.236-1.737,0.707s-0.555,1.261-0.555,2.368v4.385h-1.877V19.589h1.877v3.154c0,0.506-0.032,1.046-0.096,1.622
			h0.12c0.255-0.426,0.611-0.756,1.066-0.99s0.986-0.352,1.593-0.352c2.141,0,3.21,1.078,3.21,3.234V32.016z"/>
		<path d="M71.624,32.016l-0.375-1.23h-0.064c-0.426,0.538-0.854,0.904-1.286,1.098c-0.431,0.194-0.985,0.292-1.661,0.292
			c-0.868,0-1.545-0.234-2.032-0.703c-0.487-0.469-0.731-1.131-0.731-1.989c0-0.911,0.338-1.597,1.014-2.061
			c0.676-0.463,1.707-0.716,3.091-0.759l1.525-0.048v-0.471c0-0.564-0.132-0.986-0.395-1.266c-0.264-0.28-0.672-0.419-1.226-0.419
			c-0.453,0-0.887,0.067-1.302,0.2c-0.416,0.133-0.815,0.29-1.198,0.471l-0.607-1.342c0.479-0.25,1.004-0.44,1.573-0.571
			c0.57-0.13,1.107-0.196,1.613-0.196c1.124,0,1.972,0.245,2.544,0.735s0.858,1.259,0.858,2.308v5.95H71.624z M68.829,30.738
			c0.681,0,1.229-0.19,1.641-0.571c0.413-0.381,0.619-0.915,0.619-1.602v-0.767l-1.134,0.048c-0.884,0.032-1.527,0.18-1.929,0.443
			c-0.402,0.264-0.603,0.667-0.603,1.21c0,0.394,0.117,0.699,0.352,0.915C68.009,30.63,68.36,30.738,68.829,30.738z"/>
		<path d="M80.066,23.023c0.378,0,0.689,0.027,0.934,0.08l-0.184,1.749c-0.266-0.064-0.543-0.096-0.831-0.096
			c-0.75,0-1.359,0.245-1.825,0.735c-0.466,0.49-0.699,1.126-0.699,1.909v4.616h-1.877v-8.833h1.469l0.248,1.558h0.096
			c0.292-0.527,0.675-0.945,1.146-1.254C79.016,23.178,79.522,23.023,80.066,23.023z"/>
		<path d="M85.928,30.658c0.458,0,0.916-0.072,1.374-0.215v1.414c-0.208,0.09-0.475,0.167-0.803,0.228s-0.667,0.092-1.018,0.092
			c-1.778,0-2.667-0.937-2.667-2.811v-4.76h-1.206v-0.831l1.294-0.687l0.639-1.869h1.158v1.965h2.516v1.421h-2.516v4.728
			c0,0.453,0.113,0.787,0.339,1.002C85.264,30.551,85.561,30.658,85.928,30.658z"/>
		<path d="M99.545,32.016l-0.264-1.158h-0.096c-0.261,0.41-0.632,0.732-1.114,0.966c-0.482,0.234-1.032,0.352-1.649,0.352
			c-1.07,0-1.869-0.266-2.396-0.798c-0.527-0.533-0.791-1.339-0.791-2.42v-5.774h1.893v5.447c0,0.676,0.138,1.184,0.415,1.521
			s0.711,0.507,1.302,0.507c0.788,0,1.367-0.235,1.737-0.707c0.37-0.471,0.555-1.261,0.555-2.368v-4.4h1.885v8.833H99.545z"/>
		<path d="M109.631,29.5c0,0.862-0.314,1.524-0.942,1.984c-0.628,0.461-1.528,0.691-2.699,0.691c-1.177,0-2.122-0.178-2.835-0.535
			V30.02c1.038,0.479,2.004,0.719,2.899,0.719c1.155,0,1.733-0.349,1.733-1.046c0-0.224-0.064-0.41-0.191-0.559
			c-0.128-0.149-0.338-0.303-0.631-0.463c-0.293-0.16-0.7-0.341-1.222-0.543c-1.017-0.394-1.705-0.788-2.064-1.182
			s-0.539-0.905-0.539-1.534c0-0.756,0.305-1.343,0.915-1.761c0.609-0.418,1.438-0.627,2.488-0.627c1.038,0,2.021,0.21,2.947,0.631
			l-0.607,1.414c-0.953-0.394-1.754-0.591-2.404-0.591c-0.99,0-1.485,0.282-1.485,0.847c0,0.277,0.129,0.511,0.387,0.703
			c0.258,0.191,0.821,0.455,1.689,0.791c0.729,0.282,1.259,0.541,1.589,0.775s0.575,0.504,0.735,0.811S109.631,29.075,109.631,29.5z
			"/>
		<path d="M115.518,32.176c-1.374,0-2.448-0.4-3.223-1.202c-0.774-0.801-1.162-1.905-1.162-3.311c0-1.443,0.359-2.577,1.078-3.402
			s1.707-1.238,2.963-1.238c1.166,0,2.087,0.354,2.763,1.062c0.676,0.708,1.014,1.683,1.014,2.923v1.014h-5.886
			c0.026,0.857,0.258,1.516,0.695,1.977c0.436,0.46,1.051,0.691,1.845,0.691c0.521,0,1.007-0.049,1.458-0.148
			c0.45-0.098,0.933-0.262,1.449-0.491v1.525c-0.458,0.219-0.921,0.373-1.39,0.463C116.654,32.13,116.119,32.176,115.518,32.176z
			 M115.174,24.445c-0.597,0-1.074,0.189-1.434,0.567s-0.574,0.929-0.643,1.653h4.009c-0.011-0.729-0.187-1.282-0.527-1.657
			C116.239,24.633,115.771,24.445,115.174,24.445z"/>
		<path d="M124.063,32.176c-1.102,0-1.962-0.399-2.58-1.198c-0.618-0.799-0.927-1.919-0.927-3.362c0-1.448,0.313-2.576,0.938-3.382
			s1.492-1.21,2.6-1.21c1.161,0,2.044,0.429,2.651,1.286h0.096c-0.091-0.633-0.136-1.134-0.136-1.501v-3.218h1.885v12.427h-1.47
			l-0.327-1.158h-0.088C126.104,31.737,125.224,32.176,124.063,32.176z M124.566,30.658c0.772,0,1.334-0.217,1.685-0.651
			c0.352-0.434,0.533-1.138,0.543-2.112v-0.264c0-1.112-0.181-1.903-0.543-2.372c-0.362-0.469-0.929-0.703-1.701-0.703
			c-0.66,0-1.168,0.268-1.525,0.803c-0.356,0.535-0.535,1.298-0.535,2.288c0,0.98,0.173,1.727,0.519,2.24
			C123.354,30.401,123.874,30.658,124.566,30.658z"/>
		<path d="M138.813,30.658c0.458,0,0.916-0.072,1.374-0.215v1.414c-0.208,0.09-0.475,0.167-0.803,0.228s-0.667,0.092-1.018,0.092
			c-1.778,0-2.667-0.937-2.667-2.811v-4.76h-1.206v-0.831l1.294-0.687l0.639-1.869h1.158v1.965h2.516v1.421h-2.516v4.728
			c0,0.453,0.113,0.787,0.339,1.002C138.149,30.551,138.446,30.658,138.813,30.658z"/>
		<path d="M149.787,27.583c0,1.443-0.37,2.569-1.11,3.378c-0.74,0.81-1.771,1.214-3.091,1.214c-0.825,0-1.555-0.186-2.188-0.559
			c-0.633-0.373-1.121-0.908-1.461-1.605c-0.341-0.698-0.511-1.507-0.511-2.428c0-1.432,0.368-2.55,1.102-3.354
			c0.735-0.804,1.771-1.206,3.107-1.206c1.278,0,2.29,0.411,3.035,1.234C149.414,25.08,149.787,26.189,149.787,27.583z
			 M143.358,27.583c0,2.04,0.753,3.059,2.26,3.059c1.491,0,2.236-1.02,2.236-3.059c0-2.018-0.75-3.027-2.252-3.027
			c-0.788,0-1.359,0.261-1.713,0.783C143.535,25.861,143.358,26.609,143.358,27.583z"/>
		<path d="M162.125,29.5c0,0.862-0.314,1.524-0.942,1.984c-0.628,0.461-1.528,0.691-2.699,0.691c-1.177,0-2.122-0.178-2.835-0.535
			V30.02c1.038,0.479,2.004,0.719,2.899,0.719c1.155,0,1.733-0.349,1.733-1.046c0-0.224-0.064-0.41-0.191-0.559
			c-0.128-0.149-0.338-0.303-0.631-0.463c-0.293-0.16-0.7-0.341-1.222-0.543c-1.017-0.394-1.705-0.788-2.064-1.182
			s-0.539-0.905-0.539-1.534c0-0.756,0.305-1.343,0.915-1.761c0.609-0.418,1.438-0.627,2.488-0.627c1.038,0,2.021,0.21,2.947,0.631
			l-0.607,1.414c-0.953-0.394-1.754-0.591-2.404-0.591c-0.99,0-1.485,0.282-1.485,0.847c0,0.277,0.129,0.511,0.387,0.703
			c0.258,0.191,0.821,0.455,1.689,0.791c0.729,0.282,1.259,0.541,1.589,0.775s0.575,0.504,0.735,0.811S162.125,29.075,162.125,29.5z
			"/>
		<path d="M171.989,27.583c0,1.443-0.37,2.569-1.11,3.378c-0.74,0.81-1.771,1.214-3.091,1.214c-0.825,0-1.555-0.186-2.188-0.559
			c-0.633-0.373-1.121-0.908-1.461-1.605c-0.341-0.698-0.511-1.507-0.511-2.428c0-1.432,0.368-2.55,1.102-3.354
			c0.735-0.804,1.771-1.206,3.107-1.206c1.278,0,2.29,0.411,3.035,1.234C171.616,25.08,171.989,26.189,171.989,27.583z
			 M165.56,27.583c0,2.04,0.753,3.059,2.26,3.059c1.491,0,2.236-1.02,2.236-3.059c0-2.018-0.75-3.027-2.252-3.027
			c-0.788,0-1.359,0.261-1.713,0.783C165.737,25.861,165.56,26.609,165.56,27.583z"/>
		<path d="M176.022,32.016h-1.877V19.589h1.877V32.016z"/>
		<path d="M180.718,32.016l-3.354-8.833h1.98l1.797,5.135c0.309,0.863,0.496,1.56,0.559,2.092h0.064
			c0.048-0.383,0.234-1.081,0.559-2.092l1.797-5.135h1.997l-3.37,8.833H180.718z"/>
		<path d="M191.316,32.176c-1.374,0-2.448-0.4-3.223-1.202c-0.774-0.801-1.162-1.905-1.162-3.311c0-1.443,0.359-2.577,1.078-3.402
			s1.707-1.238,2.963-1.238c1.166,0,2.087,0.354,2.763,1.062c0.676,0.708,1.014,1.683,1.014,2.923v1.014h-5.886
			c0.026,0.857,0.258,1.516,0.695,1.977c0.436,0.46,1.051,0.691,1.845,0.691c0.521,0,1.007-0.049,1.458-0.148
			c0.45-0.098,0.933-0.262,1.449-0.491v1.525c-0.458,0.219-0.921,0.373-1.39,0.463C192.453,32.13,191.917,32.176,191.316,32.176z
			 M190.973,24.445c-0.597,0-1.074,0.189-1.434,0.567s-0.574,0.929-0.643,1.653h4.009c-0.011-0.729-0.187-1.282-0.527-1.657
			C192.037,24.633,191.569,24.445,190.973,24.445z"/>
		<path d="M208.422,32.016h-7.915v-1.421l3.011-3.027c0.889-0.911,1.479-1.556,1.769-1.937c0.29-0.38,0.502-0.739,0.635-1.074
			c0.133-0.335,0.199-0.695,0.199-1.078c0-0.527-0.158-0.942-0.475-1.246c-0.317-0.304-0.754-0.456-1.313-0.456
			c-0.447,0-0.88,0.083-1.298,0.248c-0.418,0.166-0.901,0.463-1.45,0.895l-1.014-1.238c0.649-0.548,1.28-0.937,1.893-1.166
			s1.265-0.343,1.957-0.343c1.086,0,1.957,0.283,2.611,0.851c0.655,0.567,0.982,1.33,0.982,2.288c0,0.527-0.095,1.027-0.284,1.501
			c-0.189,0.474-0.479,0.962-0.871,1.465c-0.391,0.503-1.042,1.184-1.953,2.041l-2.028,1.965v0.08h5.542V32.016z"/>
		<path d="M215.993,32.016l-0.375-1.23h-0.064c-0.426,0.538-0.854,0.904-1.286,1.098c-0.431,0.194-0.985,0.292-1.661,0.292
			c-0.868,0-1.545-0.234-2.032-0.703c-0.487-0.469-0.731-1.131-0.731-1.989c0-0.911,0.338-1.597,1.014-2.061
			c0.676-0.463,1.707-0.716,3.091-0.759l1.525-0.048v-0.471c0-0.564-0.132-0.986-0.395-1.266c-0.264-0.28-0.672-0.419-1.226-0.419
			c-0.453,0-0.887,0.067-1.302,0.2c-0.416,0.133-0.815,0.29-1.198,0.471l-0.607-1.342c0.479-0.25,1.004-0.44,1.573-0.571
			c0.57-0.13,1.107-0.196,1.613-0.196c1.124,0,1.972,0.245,2.544,0.735s0.858,1.259,0.858,2.308v5.95H215.993z M213.198,30.738
			c0.681,0,1.229-0.19,1.641-0.571c0.413-0.381,0.619-0.915,0.619-1.602v-0.767l-1.134,0.048c-0.884,0.032-1.527,0.18-1.929,0.443
			c-0.402,0.264-0.603,0.667-0.603,1.21c0,0.394,0.117,0.699,0.352,0.915C212.378,30.63,212.729,30.738,213.198,30.738z"/>
		<path d="M226.807,26.961h-3.179v-1.422h3.179v-3.258h1.438v3.258h3.187v1.422h-3.187v3.242h-1.438V26.961z"/>
		<path d="M241.126,24.725c1.176,0,2.108,0.312,2.795,0.934c0.687,0.623,1.03,1.473,1.03,2.548c0,1.246-0.39,2.219-1.17,2.919
			c-0.78,0.7-1.889,1.05-3.326,1.05c-1.305,0-2.33-0.21-3.075-0.631v-1.701c0.431,0.245,0.926,0.434,1.485,0.567
			c0.559,0.133,1.078,0.2,1.557,0.2c0.847,0,1.491-0.189,1.933-0.567c0.442-0.378,0.663-0.932,0.663-1.661
			c0-1.395-0.889-2.092-2.667-2.092c-0.25,0-0.559,0.025-0.926,0.076c-0.368,0.051-0.689,0.108-0.966,0.172l-0.839-0.495
			l0.447-5.703h6.07v1.669h-4.417l-0.264,2.891c0.187-0.032,0.414-0.069,0.683-0.112C240.408,24.746,240.737,24.725,241.126,24.725z
			"/>
		<path d="M250.845,25.379v-1.43h7.691v1.43H250.845z M250.845,28.566v-1.421h7.691v1.421H250.845z"/>
		<path d="M272.248,32.016h-7.915v-1.421l3.011-3.027c0.889-0.911,1.479-1.556,1.769-1.937c0.29-0.38,0.502-0.739,0.635-1.074
			c0.133-0.335,0.199-0.695,0.199-1.078c0-0.527-0.158-0.942-0.475-1.246c-0.317-0.304-0.754-0.456-1.313-0.456
			c-0.447,0-0.88,0.083-1.298,0.248c-0.418,0.166-0.901,0.463-1.45,0.895l-1.014-1.238c0.649-0.548,1.28-0.937,1.893-1.166
			s1.265-0.343,1.957-0.343c1.086,0,1.957,0.283,2.611,0.851c0.655,0.567,0.982,1.33,0.982,2.288c0,0.527-0.095,1.027-0.284,1.501
			c-0.189,0.474-0.479,0.962-0.871,1.465c-0.391,0.503-1.042,1.184-1.953,2.041l-2.028,1.965v0.08h5.542V32.016z"/>
		<path d="M277.631,24.725c1.176,0,2.108,0.312,2.795,0.934c0.687,0.623,1.03,1.473,1.03,2.548c0,1.246-0.39,2.219-1.17,2.919
			c-0.78,0.7-1.889,1.05-3.326,1.05c-1.305,0-2.33-0.21-3.075-0.631v-1.701c0.431,0.245,0.926,0.434,1.485,0.567
			c0.559,0.133,1.078,0.2,1.557,0.2c0.847,0,1.491-0.189,1.933-0.567c0.442-0.378,0.663-0.932,0.663-1.661
			c0-1.395-0.889-2.092-2.667-2.092c-0.25,0-0.559,0.025-0.926,0.076c-0.368,0.051-0.689,0.108-0.966,0.172l-0.839-0.495
			l0.447-5.703h6.07v1.669h-4.417l-0.264,2.891c0.187-0.032,0.414-0.069,0.683-0.112C276.913,24.746,277.242,24.725,277.631,24.725z
			"/>
	</g>
</g>
</svg>
