<svg id="Layer_1" data-name="Layer 1" xmlns="http://www.w3.org/2000/svg" width="5.61in" height="4.85in" viewBox="0 0 403.87 348.9"><defs><style>.cls-1{fill:#fff;}.cls-2,.cls-3{fill:none;stroke-miterlimit:10;}.cls-2{stroke:#231f20;}.cls-3{stroke:#000;}</style></defs><rect class="cls-1" width="403.87" height="348.9"/><path class="cls-2" d="M65.44,328.86"/><path d="M194,31.88a2.27,2.27,0,0,1-.89,1.91,3.81,3.81,0,0,1-2.41.68,6.14,6.14,0,0,1-2.54-.42V33a6.53,6.53,0,0,0,1.25.38,6.76,6.76,0,0,0,1.33.14,2.74,2.74,0,0,0,1.63-.41,1.34,1.34,0,0,0,.54-1.14,1.45,1.45,0,0,0-.19-.79,1.77,1.77,0,0,0-.65-.57,9.19,9.19,0,0,0-1.38-.59,4.37,4.37,0,0,1-1.85-1.1,2.41,2.41,0,0,1-.56-1.65,2.05,2.05,0,0,1,.81-1.71,3.32,3.32,0,0,1,2.13-.64,6.28,6.28,0,0,1,2.55.51l-.34.94a5.75,5.75,0,0,0-2.23-.48,2.13,2.13,0,0,0-1.34.37,1.2,1.2,0,0,0-.48,1,1.57,1.57,0,0,0,.17.79,1.72,1.72,0,0,0,.6.56,8.06,8.06,0,0,0,1.29.57,5,5,0,0,1,2,1.12A2.18,2.18,0,0,1,194,31.88Z"/><path d="M198,33.6a3.12,3.12,0,0,0,.54,0,2.47,2.47,0,0,0,.41-.08v.8a1.81,1.81,0,0,1-.5.14,3.45,3.45,0,0,1-.6,0c-1.35,0-2-.7-2-2.12V28.21h-1V27.7l1-.44.44-1.48h.61v1.61h2v.82h-2V32.3a1.43,1.43,0,0,0,.3,1A1,1,0,0,0,198,33.6Z"/><path d="M204.63,34.35l-.21-1h0a2.91,2.91,0,0,1-1,.88,3,3,0,0,1-1.29.23,2.29,2.29,0,0,1-1.62-.53,1.94,1.94,0,0,1-.59-1.52c0-1.4,1.12-2.14,3.37-2.21l1.18,0v-.43a1.78,1.78,0,0,0-.35-1.21,1.46,1.46,0,0,0-1.13-.39,4.48,4.48,0,0,0-2,.53l-.33-.81a5.42,5.42,0,0,1,1.13-.44,5.17,5.17,0,0,1,1.23-.15,2.63,2.63,0,0,1,1.84.55,2.31,2.31,0,0,1,.6,1.77v4.75Zm-2.38-.75a2.11,2.11,0,0,0,1.54-.54,2,2,0,0,0,.57-1.51v-.62l-1.06,0a3.86,3.86,0,0,0-1.81.39,1.18,1.18,0,0,0-.55,1.08,1.09,1.09,0,0,0,.34.87A1.5,1.5,0,0,0,202.25,33.6Z"/><path d="M210.76,27.26a4.25,4.25,0,0,1,.83.08l-.15,1a3.24,3.24,0,0,0-.76-.1,1.88,1.88,0,0,0-1.45.69,2.51,2.51,0,0,0-.59,1.7v3.74h-1.06v-7h.87l.12,1.29h.05a3.11,3.11,0,0,1,.94-1.05A2.13,2.13,0,0,1,210.76,27.26Z"/><path d="M215.14,33.6a3.08,3.08,0,0,0,.53,0,2.42,2.42,0,0,0,.42-.08v.8a1.9,1.9,0,0,1-.51.14,3.3,3.3,0,0,1-.6,0c-1.34,0-2-.7-2-2.12V28.21h-1V27.7l1-.44.45-1.48H214v1.61h2v.82h-2V32.3a1.43,1.43,0,0,0,.3,1A1,1,0,0,0,215.14,33.6Z"/><path d="M287.64,217.57h-1.08v-8.32h-2.94v-1h7v1h-2.94Z"/><path d="M295,210.49a4.15,4.15,0,0,1,.83.07l-.14,1a3.79,3.79,0,0,0-.76-.09,1.87,1.87,0,0,0-1.45.68,2.51,2.51,0,0,0-.6,1.71v3.73h-1.05v-6.95h.87l.12,1.28h.05a3.06,3.06,0,0,1,.93-1A2.1,2.1,0,0,1,295,210.49Z"/><path d="M298.12,210.62v4.51a1.85,1.85,0,0,0,.38,1.27,1.6,1.6,0,0,0,1.22.42,2,2,0,0,0,1.59-.6,3,3,0,0,0,.51-1.95v-3.65h1.05v6.95H302l-.15-.93h-.06a2.11,2.11,0,0,1-.9.79,3,3,0,0,1-1.31.27,2.67,2.67,0,0,1-1.9-.6,2.59,2.59,0,0,1-.63-1.93v-4.55Z"/><path d="M308,217.7a3.18,3.18,0,0,1-2.43-.94,3.67,3.67,0,0,1-.89-2.61,4,4,0,0,1,.83-2.67,2.74,2.74,0,0,1,2.22-1,2.64,2.64,0,0,1,2.07.86,3.28,3.28,0,0,1,.76,2.27v.66h-4.79a2.75,2.75,0,0,0,.62,1.86,2.11,2.11,0,0,0,1.65.64,5.64,5.64,0,0,0,2.22-.47v.94a6.46,6.46,0,0,1-1.05.35A6.94,6.94,0,0,1,308,217.7Zm-.28-6.33a1.71,1.71,0,0,0-1.34.55,2.44,2.44,0,0,0-.58,1.51h3.63a2.35,2.35,0,0,0-.44-1.53A1.58,1.58,0,0,0,307.76,211.37Z"/><path d="M92.19,217.57H91.11v-9.28h5.17v1H92.19v3.4H96v1H92.19Z"/><path d="M101.94,217.57l-.21-1h0a3,3,0,0,1-1,.89,3.27,3.27,0,0,1-1.29.23,2.34,2.34,0,0,1-1.62-.53,2,2,0,0,1-.59-1.52c0-1.41,1.12-2.14,3.37-2.21l1.18,0V213a1.78,1.78,0,0,0-.35-1.21,1.46,1.46,0,0,0-1.13-.39,4.7,4.7,0,0,0-2,.53l-.32-.8a4.92,4.92,0,0,1,1.13-.44,4.65,4.65,0,0,1,1.22-.16,2.71,2.71,0,0,1,1.85.55,2.31,2.31,0,0,1,.6,1.77v4.75Zm-2.38-.74a2.13,2.13,0,0,0,1.54-.54,2,2,0,0,0,.57-1.51v-.63l-1.06,0a3.83,3.83,0,0,0-1.81.39,1.18,1.18,0,0,0-.56,1.07,1.09,1.09,0,0,0,.35.87A1.43,1.43,0,0,0,99.56,216.83Z"/><path d="M105.94,217.57h-1V207.7h1Z"/><path d="M112.67,215.67a1.75,1.75,0,0,1-.73,1.5,3.4,3.4,0,0,1-2,.53,4.46,4.46,0,0,1-2.16-.44v-1a5,5,0,0,0,1.08.4,4.35,4.35,0,0,0,1.11.15,2.59,2.59,0,0,0,1.27-.26.89.89,0,0,0,.44-.81.87.87,0,0,0-.35-.69,5.76,5.76,0,0,0-1.38-.68,8.52,8.52,0,0,1-1.38-.64,2,2,0,0,1-.61-.61,1.63,1.63,0,0,1-.2-.82,1.55,1.55,0,0,1,.7-1.34,3.19,3.19,0,0,1,1.89-.49,5.5,5.5,0,0,1,2.2.46l-.37.85a5.24,5.24,0,0,0-1.9-.43,2.13,2.13,0,0,0-1.13.24.7.7,0,0,0-.38.64.76.76,0,0,0,.14.48,1.28,1.28,0,0,0,.46.37,10.76,10.76,0,0,0,1.22.52,4.5,4.5,0,0,1,1.67.91A1.58,1.58,0,0,1,112.67,215.67Z"/><path d="M117.32,217.7a3.2,3.2,0,0,1-2.44-.94,3.67,3.67,0,0,1-.89-2.61,4,4,0,0,1,.83-2.67,2.75,2.75,0,0,1,2.23-1,2.61,2.61,0,0,1,2.06.86,3.29,3.29,0,0,1,.77,2.27v.66h-4.8a2.8,2.8,0,0,0,.62,1.86,2.13,2.13,0,0,0,1.66.64,5.64,5.64,0,0,0,2.22-.47v.94a6.55,6.55,0,0,1-1.06.35A6.73,6.73,0,0,1,117.32,217.7Zm-.29-6.33a1.69,1.69,0,0,0-1.33.55,2.45,2.45,0,0,0-.59,1.51h3.64a2.29,2.29,0,0,0-.45-1.53A1.57,1.57,0,0,0,117,211.37Z"/><rect class="cls-3" x="162.06" y="15.83" width="79.74" height="29.42" rx="12"/><path d="M196.8,320.8h-5.18v-9.28h5.18v1h-4.1v3h3.85v.95H192.7v3.41h4.1Z"/><path d="M203.46,320.8v-4.5a1.8,1.8,0,0,0-.39-1.27,1.57,1.57,0,0,0-1.21-.42,2,2,0,0,0-1.6.59,3,3,0,0,0-.51,1.95v3.65h-1.06v-7h.86l.17,1h.05a2.2,2.2,0,0,1,.91-.79,2.92,2.92,0,0,1,1.3-.29,2.65,2.65,0,0,1,1.89.61,2.56,2.56,0,0,1,.64,1.94v4.54Z"/><path d="M211.41,319.87h-.06a2.48,2.48,0,0,1-2.18,1.06A2.61,2.61,0,0,1,207,320a5.06,5.06,0,0,1,0-5.32,2.81,2.81,0,0,1,4.29.07h.08l0-.5,0-.49v-2.83h1.06v9.88h-.86Zm-2.11.17a1.94,1.94,0,0,0,1.57-.58,3,3,0,0,0,.48-1.9v-.22a3.47,3.47,0,0,0-.49-2.11,1.87,1.87,0,0,0-1.57-.63,1.62,1.62,0,0,0-1.42.72,3.56,3.56,0,0,0-.49,2,3.39,3.39,0,0,0,.49,2A1.62,1.62,0,0,0,209.3,320Z"/><rect class="cls-3" x="162.06" y="302.28" width="79.74" height="29.42" rx="12"/><path d="M159.47,83.28a2.27,2.27,0,0,1-.89,1.91,3.85,3.85,0,0,1-2.41.69,5.9,5.9,0,0,1-2.54-.43v-1a6.42,6.42,0,0,0,1.24.38,6.08,6.08,0,0,0,1.33.14,2.67,2.67,0,0,0,1.63-.41,1.34,1.34,0,0,0,.54-1.13,1.48,1.48,0,0,0-.19-.8,1.76,1.76,0,0,0-.65-.56,8.25,8.25,0,0,0-1.38-.59,4.47,4.47,0,0,1-1.85-1.1,2.45,2.45,0,0,1-.55-1.66,2.1,2.1,0,0,1,.8-1.71,3.38,3.38,0,0,1,2.14-.63,6.23,6.23,0,0,1,2.54.51l-.34.94a5.59,5.59,0,0,0-2.23-.49,2.2,2.2,0,0,0-1.34.37,1.23,1.23,0,0,0-.48,1,1.42,1.42,0,0,0,.78,1.36,7.66,7.66,0,0,0,1.29.57,5.19,5.19,0,0,1,2,1.11A2.24,2.24,0,0,1,159.47,83.28Z"/><path d="M163.45,85a3.12,3.12,0,0,0,.54,0l.41-.09v.81a2.24,2.24,0,0,1-.5.14,4.54,4.54,0,0,1-.6,0c-1.35,0-2-.71-2-2.13V79.61h-1v-.5l1-.44.45-1.49h.61V78.8h2v.81h-2v4.1a1.38,1.38,0,0,0,.29,1A1,1,0,0,0,163.45,85Z"/><path d="M171.8,82.27a3.82,3.82,0,0,1-.86,2.65,3,3,0,0,1-2.37,1,3.13,3.13,0,0,1-1.65-.44,2.9,2.9,0,0,1-1.12-1.25,4.45,4.45,0,0,1-.39-1.92,3.8,3.8,0,0,1,.85-2.65,3,3,0,0,1,2.36-1,2.93,2.93,0,0,1,2.32,1A3.84,3.84,0,0,1,171.8,82.27Zm-5.3,0a3.34,3.34,0,0,0,.53,2,1.88,1.88,0,0,0,1.57.7,1.85,1.85,0,0,0,1.57-.7,4.07,4.07,0,0,0,0-4,1.88,1.88,0,0,0-1.58-.69,1.86,1.86,0,0,0-1.56.68A3.24,3.24,0,0,0,166.5,82.27Z"/><path d="M176.82,78.67a3.49,3.49,0,0,1,.83.08l-.14,1a3.88,3.88,0,0,0-.77-.09,1.87,1.87,0,0,0-1.44.68,2.51,2.51,0,0,0-.6,1.71v3.73h-1v-7h.87l.12,1.28h.05a3.06,3.06,0,0,1,.93-1A2.05,2.05,0,0,1,176.82,78.67Z"/><path d="M181.89,85.88a3.16,3.16,0,0,1-2.43-.94,3.63,3.63,0,0,1-.89-2.61,4,4,0,0,1,.82-2.67,2.77,2.77,0,0,1,2.23-1,2.64,2.64,0,0,1,2.07.86,3.28,3.28,0,0,1,.76,2.27v.66h-4.79a2.75,2.75,0,0,0,.62,1.86,2.11,2.11,0,0,0,1.65.64,5.64,5.64,0,0,0,2.22-.47v.94a5.47,5.47,0,0,1-1.06.35A6.73,6.73,0,0,1,181.89,85.88Zm-.28-6.33a1.71,1.71,0,0,0-1.34.55,2.51,2.51,0,0,0-.59,1.51h3.64a2.35,2.35,0,0,0-.44-1.53A1.58,1.58,0,0,0,181.61,79.55Z"/><path d="M193.9,85.75l-.21-1h-.05a3,3,0,0,1-1,.89,3.2,3.2,0,0,1-1.29.23,2.34,2.34,0,0,1-1.62-.53,2,2,0,0,1-.59-1.52c0-1.41,1.13-2.14,3.37-2.21l1.18,0v-.43a1.73,1.73,0,0,0-.35-1.21,1.44,1.44,0,0,0-1.12-.39,4.66,4.66,0,0,0-2,.53l-.33-.8a5.11,5.11,0,0,1,1.13-.44,4.72,4.72,0,0,1,1.23-.16,2.68,2.68,0,0,1,1.84.55,2.31,2.31,0,0,1,.6,1.77v4.75ZM191.52,85a2.15,2.15,0,0,0,1.55-.54,2,2,0,0,0,.56-1.51v-.63l-1,0a3.87,3.87,0,0,0-1.82.39,1.17,1.17,0,0,0-.55,1.07,1.09,1.09,0,0,0,.34.87A1.44,1.44,0,0,0,191.52,85Z"/><path d="M203.4,78.67a3.63,3.63,0,0,1,.84.08l-.15,1a3.79,3.79,0,0,0-.76-.09,1.89,1.89,0,0,0-1.45.68,2.51,2.51,0,0,0-.6,1.71v3.73h-1.05v-7h.87l.12,1.28h.05a3.06,3.06,0,0,1,.93-1A2.1,2.1,0,0,1,203.4,78.67Z"/><path d="M209.82,85.75l-.21-1h-.05a3,3,0,0,1-1,.89,3.27,3.27,0,0,1-1.29.23,2.39,2.39,0,0,1-1.63-.53,2,2,0,0,1-.58-1.52c0-1.41,1.12-2.14,3.37-2.21l1.18,0v-.43a1.78,1.78,0,0,0-.35-1.21,1.46,1.46,0,0,0-1.13-.39,4.66,4.66,0,0,0-2,.53l-.32-.8a5,5,0,0,1,1.12-.44,4.72,4.72,0,0,1,1.23-.16,2.71,2.71,0,0,1,1.85.55,2.31,2.31,0,0,1,.6,1.77v4.75ZM207.44,85a2.13,2.13,0,0,0,1.54-.54,2,2,0,0,0,.56-1.51v-.63l-1,0a3.83,3.83,0,0,0-1.81.39,1.18,1.18,0,0,0-.56,1.07,1.09,1.09,0,0,0,.35.87A1.43,1.43,0,0,0,207.44,85Z"/><path d="M217.53,85.75v-4.5a1.82,1.82,0,0,0-.39-1.27,1.57,1.57,0,0,0-1.21-.42,2,2,0,0,0-1.6.59,3,3,0,0,0-.51,1.95v3.65h-1v-7h.85l.18,1h0a2.13,2.13,0,0,1,.9-.8,3,3,0,0,1,1.31-.28,2.64,2.64,0,0,1,1.89.61,2.58,2.58,0,0,1,.63,1.93v4.54Z"/><path d="M225.48,84.82h-.06a2.45,2.45,0,0,1-2.18,1.06,2.57,2.57,0,0,1-2.12-.93,4.11,4.11,0,0,1-.76-2.66,4.18,4.18,0,0,1,.76-2.67,2.59,2.59,0,0,1,2.12-1,2.52,2.52,0,0,1,2.17,1h.08l0-.5,0-.49V75.88h1.06v9.87h-.86Zm-2.11.18a1.93,1.93,0,0,0,1.57-.59,3,3,0,0,0,.48-1.89v-.23a3.49,3.49,0,0,0-.49-2.11,1.87,1.87,0,0,0-1.57-.63,1.62,1.62,0,0,0-1.42.72,3.58,3.58,0,0,0-.49,2,3.41,3.41,0,0,0,.49,2A1.66,1.66,0,0,0,223.37,85Z"/><path d="M234.72,82.27a3.82,3.82,0,0,1-.86,2.65,3,3,0,0,1-2.37,1,3.13,3.13,0,0,1-1.65-.44,2.84,2.84,0,0,1-1.12-1.25,4.45,4.45,0,0,1-.39-1.92,3.8,3.8,0,0,1,.85-2.65,3,3,0,0,1,2.36-1,3,3,0,0,1,2.32,1A3.84,3.84,0,0,1,234.72,82.27Zm-5.3,0a3.28,3.28,0,0,0,.53,2,1.88,1.88,0,0,0,1.57.7,1.85,1.85,0,0,0,1.57-.7,4.07,4.07,0,0,0,0-4,2.15,2.15,0,0,0-3.15,0A3.3,3.3,0,0,0,229.42,82.27Z"/><path d="M245.43,85.75V81.23a1.92,1.92,0,0,0-.35-1.25,1.38,1.38,0,0,0-1.11-.42,1.77,1.77,0,0,0-1.45.57,2.72,2.72,0,0,0-.47,1.74v3.88H241V81.23a1.86,1.86,0,0,0-.36-1.25,1.38,1.38,0,0,0-1.11-.42,1.72,1.72,0,0,0-1.45.6,3.16,3.16,0,0,0-.46,1.94v3.65h-1.06v-7h.86l.17,1h0a2.09,2.09,0,0,1,.84-.8,2.61,2.61,0,0,1,1.22-.28,2.05,2.05,0,0,1,2.13,1.18h0a2.23,2.23,0,0,1,.91-.86,2.68,2.68,0,0,1,1.34-.32,2.33,2.33,0,0,1,1.77.61,2.7,2.7,0,0,1,.59,1.93v4.54Z"/><path d="M153.86,101.35v-4.5a1.82,1.82,0,0,0-.38-1.27,1.6,1.6,0,0,0-1.22-.42,2,2,0,0,0-1.59.59,3,3,0,0,0-.51,2v3.65H149.1V94.4H150l.17.95h.05a2.22,2.22,0,0,1,.91-.8,2.92,2.92,0,0,1,1.3-.28,2.6,2.6,0,0,1,1.89.61,2.54,2.54,0,0,1,.64,1.93v4.54Z"/><path d="M158.07,94.4v4.51a1.8,1.8,0,0,0,.39,1.27,1.57,1.57,0,0,0,1.21.42,2,2,0,0,0,1.6-.6,3,3,0,0,0,.5-2V94.4h1.06v6.95H162l-.15-.93h-.06a2.23,2.23,0,0,1-.9.79,3,3,0,0,1-1.31.27,2.66,2.66,0,0,1-1.9-.6A2.58,2.58,0,0,1,157,99V94.4Z"/><path d="M173.93,101.35V96.83a1.86,1.86,0,0,0-.36-1.25,1.35,1.35,0,0,0-1.1-.42,1.76,1.76,0,0,0-1.45.57,2.66,2.66,0,0,0-.47,1.74v3.88h-1.06V96.83a1.92,1.92,0,0,0-.35-1.25,1.38,1.38,0,0,0-1.11-.42,1.7,1.7,0,0,0-1.45.6,3.16,3.16,0,0,0-.46,1.94v3.65h-1.06V94.4h.86l.17.95h0a2.16,2.16,0,0,1,.84-.8,2.58,2.58,0,0,1,1.22-.28,2.06,2.06,0,0,1,2.13,1.18h0a2.26,2.26,0,0,1,.9-.86,2.72,2.72,0,0,1,1.35-.32,2.35,2.35,0,0,1,1.77.61,2.7,2.7,0,0,1,.58,1.93v4.54Z"/><path d="M180.39,94.28a2.56,2.56,0,0,1,2.13.94,4.08,4.08,0,0,1,.76,2.65,4.13,4.13,0,0,1-.77,2.66,2.57,2.57,0,0,1-2.12,1,3,3,0,0,1-1.24-.25,2.33,2.33,0,0,1-.94-.77h-.08l-.22.89h-.76V91.48h1.06v2.4c0,.53,0,1-.05,1.44h.05A2.51,2.51,0,0,1,180.39,94.28Zm-.15.88a1.86,1.86,0,0,0-1.56.62,3.58,3.58,0,0,0-.47,2.09,3.47,3.47,0,0,0,.49,2.1,1.84,1.84,0,0,0,1.56.63,1.64,1.64,0,0,0,1.45-.71,3.6,3.6,0,0,0,.48-2,3.47,3.47,0,0,0-.48-2A1.7,1.7,0,0,0,180.24,95.16Z"/><path d="M188.06,101.48a3.16,3.16,0,0,1-2.43-.94,3.63,3.63,0,0,1-.9-2.61,4,4,0,0,1,.83-2.67,2.76,2.76,0,0,1,2.23-1,2.64,2.64,0,0,1,2.07.86,3.33,3.33,0,0,1,.76,2.27v.66h-4.8a2.8,2.8,0,0,0,.62,1.86,2.15,2.15,0,0,0,1.66.64,5.64,5.64,0,0,0,2.22-.47V101a5.7,5.7,0,0,1-1.06.35A6.73,6.73,0,0,1,188.06,101.48Zm-.29-6.33a1.69,1.69,0,0,0-1.33.55,2.51,2.51,0,0,0-.59,1.51h3.64a2.29,2.29,0,0,0-.45-1.53A1.57,1.57,0,0,0,187.77,95.15Z"/><path d="M195.59,94.27a3.54,3.54,0,0,1,.83.08l-.15,1a3.71,3.71,0,0,0-.76-.09,1.87,1.87,0,0,0-1.44.68,2.51,2.51,0,0,0-.6,1.71v3.73h-1.06V94.4h.87l.12,1.28h0a3,3,0,0,1,.94-1A2.05,2.05,0,0,1,195.59,94.27Z"/><path d="M204.33,94.28a2.56,2.56,0,0,1,2.13.94,4.08,4.08,0,0,1,.76,2.65,4.13,4.13,0,0,1-.76,2.66,2.59,2.59,0,0,1-2.13,1,3,3,0,0,1-1.24-.25,2.33,2.33,0,0,1-.94-.77h-.08l-.22.89h-.75V91.48h1.05v2.4c0,.53,0,1-.05,1.44h.05A2.51,2.51,0,0,1,204.33,94.28Zm-.15.88a1.83,1.83,0,0,0-1.55.62,4.77,4.77,0,0,0,0,4.19,1.87,1.87,0,0,0,1.57.63,1.61,1.61,0,0,0,1.44-.71,3.6,3.6,0,0,0,.48-2,3.47,3.47,0,0,0-.48-2A1.68,1.68,0,0,0,204.18,95.16Z"/><path d="M212,101.48a3.16,3.16,0,0,1-2.43-.94,3.63,3.63,0,0,1-.89-2.61,4,4,0,0,1,.82-2.67,2.77,2.77,0,0,1,2.23-1,2.64,2.64,0,0,1,2.07.86,3.28,3.28,0,0,1,.76,2.27v.66h-4.79a2.75,2.75,0,0,0,.62,1.86,2.11,2.11,0,0,0,1.65.64,5.64,5.64,0,0,0,2.22-.47V101a5.62,5.62,0,0,1-1,.35A6.94,6.94,0,0,1,212,101.48Zm-.28-6.33a1.71,1.71,0,0,0-1.34.55,2.51,2.51,0,0,0-.59,1.51h3.64a2.35,2.35,0,0,0-.44-1.53A1.58,1.58,0,0,0,211.72,95.15Z"/><path d="M218.6,100.61a3.12,3.12,0,0,0,.54,0l.42-.09v.81a2.54,2.54,0,0,1-.51.14,4.54,4.54,0,0,1-.6,0c-1.34,0-2-.71-2-2.13V95.21h-1v-.5l1-.44.45-1.49h.61V94.4h2v.81h-2v4.1a1.38,1.38,0,0,0,.3,1A1,1,0,0,0,218.6,100.61Z"/><path d="M226.63,101.35l-1.28-4.08c-.08-.25-.23-.82-.45-1.7h-.05c-.17.74-.32,1.31-.44,1.71l-1.32,4.07h-1.22L220,94.4h1.1q.67,2.61,1,4a16.65,16.65,0,0,1,.41,1.85h.05c.05-.25.12-.56.22-.94s.2-.69.27-.91l1.28-4h1.14l1.25,4a15.84,15.84,0,0,1,.48,1.83h.05a6.43,6.43,0,0,1,.14-.7q.11-.48,1.32-5.12h1.09l-1.92,6.95Z"/><path d="M234,101.48a3.2,3.2,0,0,1-2.44-.94,3.67,3.67,0,0,1-.89-2.61,4,4,0,0,1,.83-2.67,2.74,2.74,0,0,1,2.22-1,2.61,2.61,0,0,1,2.07.86,3.29,3.29,0,0,1,.77,2.27v.66h-4.8a2.75,2.75,0,0,0,.62,1.86,2.12,2.12,0,0,0,1.66.64,5.71,5.71,0,0,0,2.22-.47V101a6,6,0,0,1-1.06.35A6.73,6.73,0,0,1,234,101.48Zm-.29-6.33a1.69,1.69,0,0,0-1.33.55,2.45,2.45,0,0,0-.59,1.51h3.64a2.29,2.29,0,0,0-.45-1.53A1.58,1.58,0,0,0,233.71,95.15Z"/><path d="M241.29,101.48a3.16,3.16,0,0,1-2.43-.94,3.63,3.63,0,0,1-.9-2.61,4,4,0,0,1,.83-2.67,2.76,2.76,0,0,1,2.23-1,2.64,2.64,0,0,1,2.07.86,3.33,3.33,0,0,1,.76,2.27v.66h-4.79a2.75,2.75,0,0,0,.61,1.86,2.15,2.15,0,0,0,1.66.64,5.64,5.64,0,0,0,2.22-.47V101a5.47,5.47,0,0,1-1.06.35A6.73,6.73,0,0,1,241.29,101.48ZM241,95.15a1.7,1.7,0,0,0-1.33.55,2.51,2.51,0,0,0-.59,1.51h3.64a2.29,2.29,0,0,0-.45-1.53A1.55,1.55,0,0,0,241,95.15Z"/><path d="M250.41,101.35v-4.5a1.82,1.82,0,0,0-.39-1.27,1.57,1.57,0,0,0-1.21-.42,2,2,0,0,0-1.6.59,3,3,0,0,0-.51,2v3.65h-1V94.4h.85l.17.95h.05a2.22,2.22,0,0,1,.91-.8,3,3,0,0,1,1.3-.28,2.6,2.6,0,0,1,1.89.61,2.54,2.54,0,0,1,.64,1.93v4.54Z"/><path d="M164.66,112.3a6.73,6.73,0,0,1-.76,3.59,2.57,2.57,0,0,1-2.32,1.19,2.55,2.55,0,0,1-2.28-1.22,6.62,6.62,0,0,1-.78-3.56,6.7,6.7,0,0,1,.76-3.6,2.55,2.55,0,0,1,2.3-1.17,2.58,2.58,0,0,1,2.3,1.22A6.65,6.65,0,0,1,164.66,112.3Zm-5.07,0a7,7,0,0,0,.47,3,1.72,1.72,0,0,0,3.05,0,7,7,0,0,0,.47-2.94,6.91,6.91,0,0,0-.47-2.93,1.72,1.72,0,0,0-3.05,0A6.86,6.86,0,0,0,159.59,112.3Z"/><path d="M174.08,117l-.21-1h-.05a3,3,0,0,1-1,.89,3.24,3.24,0,0,1-1.29.23,2.34,2.34,0,0,1-1.62-.53,2,2,0,0,1-.59-1.52c0-1.41,1.12-2.14,3.37-2.21l1.18,0v-.43a1.8,1.8,0,0,0-.35-1.21,1.46,1.46,0,0,0-1.13-.39,4.7,4.7,0,0,0-2,.53l-.32-.8a4.92,4.92,0,0,1,1.13-.44,4.67,4.67,0,0,1,1.23-.16,2.68,2.68,0,0,1,1.84.55,2.32,2.32,0,0,1,.6,1.78V117Zm-2.38-.74a2.13,2.13,0,0,0,1.54-.54,2,2,0,0,0,.57-1.51v-.63l-1.06,0a3.83,3.83,0,0,0-1.81.39,1.18,1.18,0,0,0-.56,1.07,1.09,1.09,0,0,0,.35.87A1.43,1.43,0,0,0,171.7,116.21Z"/><path d="M181.79,117v-4.5a1.82,1.82,0,0,0-.39-1.27,1.56,1.56,0,0,0-1.21-.42,2,2,0,0,0-1.6.59,3,3,0,0,0-.51,2V117H177v-7h.86l.17,1h.05a2.22,2.22,0,0,1,.91-.8,2.92,2.92,0,0,1,1.3-.28,2.6,2.6,0,0,1,1.89.61,2.58,2.58,0,0,1,.63,1.93V117Z"/><path d="M189.74,116h-.05a2.48,2.48,0,0,1-2.19,1.06,2.59,2.59,0,0,1-2.12-.93,4.17,4.17,0,0,1-.76-2.66,4.24,4.24,0,0,1,.76-2.67,2.59,2.59,0,0,1,2.12-.95,2.51,2.51,0,0,1,2.17,1h.09l0-.5,0-.49v-2.83h1.05V117h-.86Zm-2.1.18a1.91,1.91,0,0,0,1.56-.59,2.91,2.91,0,0,0,.49-1.89v-.23a3.56,3.56,0,0,0-.49-2.11,1.89,1.89,0,0,0-1.58-.63,1.6,1.6,0,0,0-1.41.72,3.57,3.57,0,0,0-.5,2,3.48,3.48,0,0,0,.49,2A1.68,1.68,0,0,0,187.64,116.2Z"/><path d="M199.77,117h-1v-6.61c0-.55,0-1.07.05-1.56l-.3.28L197,110.29l-.56-.72,2.46-1.9h.88Z"/><path d="M207.07,108.11a.69.69,0,0,1,.18-.53.64.64,0,0,1,.45-.17.61.61,0,0,1,.43.17.83.83,0,0,1,0,1.06.58.58,0,0,1-.43.18.61.61,0,0,1-.45-.18A.71.71,0,0,1,207.07,108.11Zm1.15,8.84h-1.06v-7h1.06Z"/><path d="M215.21,117v-4.5a1.82,1.82,0,0,0-.39-1.27,1.56,1.56,0,0,0-1.21-.42,2,2,0,0,0-1.6.59,3,3,0,0,0-.51,2V117h-1.05v-7h.86l.17,1h.05a2.22,2.22,0,0,1,.91-.8,2.92,2.92,0,0,1,1.3-.28,2.6,2.6,0,0,1,1.89.61,2.58,2.58,0,0,1,.64,1.93V117Z"/><path d="M224.59,117.08a3,3,0,0,1-2.34-.93,3.84,3.84,0,0,1-.83-2.63,4,4,0,0,1,.84-2.7,3,3,0,0,1,2.4-.95,4.86,4.86,0,0,1,1,.11,3.2,3.2,0,0,1,.79.25l-.33.9a4.85,4.85,0,0,0-.76-.24,3.45,3.45,0,0,0-.73-.09c-1.41,0-2.12.9-2.12,2.71a3.16,3.16,0,0,0,.52,2,1.78,1.78,0,0,0,1.53.69,4.9,4.9,0,0,0,1.79-.37v.93A3.86,3.86,0,0,1,224.59,117.08Z"/><path d="M234,113.47a3.82,3.82,0,0,1-.86,2.65,3,3,0,0,1-2.36,1,3.14,3.14,0,0,1-1.66-.44,2.9,2.9,0,0,1-1.12-1.25,4.45,4.45,0,0,1-.39-1.92,3.8,3.8,0,0,1,.85-2.65,3,3,0,0,1,2.36-.95,2.93,2.93,0,0,1,2.32,1A3.84,3.84,0,0,1,234,113.47Zm-5.3,0a3.34,3.34,0,0,0,.53,2,1.88,1.88,0,0,0,1.57.7,1.85,1.85,0,0,0,1.57-.7,4.07,4.07,0,0,0,0-4,1.88,1.88,0,0,0-1.58-.69,1.86,1.86,0,0,0-1.56.68A3.3,3.3,0,0,0,228.7,113.47Z"/><path d="M235.76,108.11a.69.69,0,0,1,.18-.53.62.62,0,0,1,.44-.17.64.64,0,0,1,.44.17.87.87,0,0,1,0,1.06.6.6,0,0,1-.44.18.59.59,0,0,1-.44-.18A.71.71,0,0,1,235.76,108.11ZM236.9,117h-1.05v-7h1.05Z"/><path d="M243.9,117v-4.5a1.82,1.82,0,0,0-.39-1.27,1.57,1.57,0,0,0-1.21-.42,2,2,0,0,0-1.6.59,3,3,0,0,0-.51,2V117h-1.05v-7H240l.17,1h.05a2.22,2.22,0,0,1,.91-.8,3,3,0,0,1,1.3-.28,2.65,2.65,0,0,1,1.9.61,2.58,2.58,0,0,1,.63,1.93V117Z"/><polygon class="cls-3" points="145.56 67.87 293.39 67.87 258.31 127.22 110.48 127.22 145.56 67.87"/><path d="M95.2,249.2a5.07,5.07,0,0,1-1.13,3.51A4,4,0,0,1,90.94,254a4,4,0,0,1-3.16-1.25,5.18,5.18,0,0,1-1.12-3.54,5.1,5.1,0,0,1,1.12-3.51A4,4,0,0,1,91,244.43a4,4,0,0,1,3.13,1.27A5.08,5.08,0,0,1,95.2,249.2Zm-7.39,0a4.37,4.37,0,0,0,.8,2.86,3.27,3.27,0,0,0,4.66,0,4.46,4.46,0,0,0,.79-2.87,4.39,4.39,0,0,0-.79-2.84,2.81,2.81,0,0,0-2.32-1,2.86,2.86,0,0,0-2.34,1A4.32,4.32,0,0,0,87.81,249.2Z"/><path d="M98.1,246.9v4.51a1.8,1.8,0,0,0,.39,1.27,1.57,1.57,0,0,0,1.21.42,2,2,0,0,0,1.6-.6,3,3,0,0,0,.5-1.95V246.9h1.06v7H102l-.16-.94h0a2.09,2.09,0,0,1-.9.79,3,3,0,0,1-1.31.27,2.66,2.66,0,0,1-1.9-.6,2.58,2.58,0,0,1-.63-1.93V246.9Z"/><path d="M107.34,253.11a3.27,3.27,0,0,0,.54,0c.17,0,.31,0,.41-.08v.8a1.81,1.81,0,0,1-.5.14,4.83,4.83,0,0,1-.6,0c-1.35,0-2-.71-2-2.12v-4.14h-1v-.51l1-.44.44-1.48h.61v1.61h2v.82h-2v4.09a1.43,1.43,0,0,0,.3,1A1,1,0,0,0,107.34,253.11Z"/><path d="M112.92,254a2.92,2.92,0,0,1-1.24-.25,2.35,2.35,0,0,1-1-.77h-.07a9.48,9.48,0,0,1,.07,1.16V257h-1V246.9h.86l.14.95h0a2.37,2.37,0,0,1,1-.82,2.86,2.86,0,0,1,1.24-.26,2.57,2.57,0,0,1,2.13.95,5,5,0,0,1,0,5.31A2.56,2.56,0,0,1,112.92,254Zm-.15-6.31a1.86,1.86,0,0,0-1.55.59,3.09,3.09,0,0,0-.49,1.88v.23a3.52,3.52,0,0,0,.49,2.1,1.87,1.87,0,0,0,1.57.63,1.62,1.62,0,0,0,1.41-.73,3.48,3.48,0,0,0,.51-2,3.36,3.36,0,0,0-.51-2A1.68,1.68,0,0,0,112.77,247.67Z"/><path d="M118.64,246.9v4.51a1.85,1.85,0,0,0,.38,1.27,1.6,1.6,0,0,0,1.22.42,2,2,0,0,0,1.59-.6,3,3,0,0,0,.51-1.95V246.9h1v7h-.87l-.15-.94h-.06a2,2,0,0,1-.9.79,3,3,0,0,1-1.31.27,2.67,2.67,0,0,1-1.9-.6,2.58,2.58,0,0,1-.63-1.93V246.9Z"/><path d="M127.87,253.11a3.12,3.12,0,0,0,.54,0,3.72,3.72,0,0,0,.41-.08v.8a1.81,1.81,0,0,1-.5.14,4.54,4.54,0,0,1-.6,0c-1.35,0-2-.71-2-2.12v-4.14h-1v-.51l1-.44.45-1.48h.61v1.61h2v.82h-2v4.09a1.48,1.48,0,0,0,.29,1A1.06,1.06,0,0,0,127.87,253.11Z"/><path d="M84,263.36l-.08-.14a12.27,12.27,0,0,1,.45-1.43c.21-.56.43-1.1.67-1.61h.78a31,31,0,0,0-.66,3.18Zm2.34,0-.1-.14a19.07,19.07,0,0,1,1.13-3h.78c-.12.48-.25,1-.37,1.64s-.22,1.12-.27,1.54Z"/><path d="M96.66,269.46H95.59v-4.37H90.7v4.37H89.62v-9.28H90.7v3.94h4.89v-3.94h1.07Z"/><path d="M102,269.58a3.16,3.16,0,0,1-2.43-.94,3.6,3.6,0,0,1-.9-2.61,4,4,0,0,1,.83-2.67,2.76,2.76,0,0,1,2.23-1,2.64,2.64,0,0,1,2.07.86,3.35,3.35,0,0,1,.76,2.27v.67H99.76a2.78,2.78,0,0,0,.61,1.86,2.18,2.18,0,0,0,1.66.63,5.47,5.47,0,0,0,2.22-.47v.94a5.7,5.7,0,0,1-1.06.35A5.91,5.91,0,0,1,102,269.58Zm-.29-6.33a1.73,1.73,0,0,0-1.33.55,2.53,2.53,0,0,0-.59,1.51h3.64a2.33,2.33,0,0,0-.45-1.53A1.57,1.57,0,0,0,101.7,263.25Z"/><path d="M110.62,269.46l-.21-1h0a2.83,2.83,0,0,1-1,.88,3,3,0,0,1-1.29.23,2.34,2.34,0,0,1-1.62-.53,2,2,0,0,1-.59-1.52c0-1.4,1.13-2.14,3.37-2.21l1.19,0v-.44a1.75,1.75,0,0,0-.36-1.21,1.44,1.44,0,0,0-1.12-.39,4.55,4.55,0,0,0-2,.54l-.33-.81a5.11,5.11,0,0,1,1.13-.44,5.19,5.19,0,0,1,1.23-.16,2.63,2.63,0,0,1,1.84.56,2.28,2.28,0,0,1,.6,1.77v4.75Zm-2.38-.75a2.15,2.15,0,0,0,1.55-.54,2,2,0,0,0,.56-1.51V266l-1,.05a3.87,3.87,0,0,0-1.82.39,1.17,1.17,0,0,0-.55,1.07,1.06,1.06,0,0,0,.34.87A1.44,1.44,0,0,0,108.24,268.71Z"/><path d="M118.31,268.52h-.06a2.45,2.45,0,0,1-2.18,1.06,2.57,2.57,0,0,1-2.12-.93,4.08,4.08,0,0,1-.76-2.65,4.19,4.19,0,0,1,.76-2.68,2.57,2.57,0,0,1,2.12-.95,2.52,2.52,0,0,1,2.17,1h.08l0-.5,0-.49v-2.83h1.06v9.88h-.86Zm-2.11.18a1.94,1.94,0,0,0,1.57-.59,3,3,0,0,0,.48-1.89V266a3.47,3.47,0,0,0-.49-2.11,1.85,1.85,0,0,0-1.57-.64,1.62,1.62,0,0,0-1.42.72,3.58,3.58,0,0,0-.49,2,3.39,3.39,0,0,0,.49,2A1.65,1.65,0,0,0,116.2,268.7Z"/><path d="M126,267.56a1.74,1.74,0,0,1-.73,1.5,3.38,3.38,0,0,1-2,.52,4.28,4.28,0,0,1-2.15-.44v-1a5.25,5.25,0,0,0,1.07.4,4.82,4.82,0,0,0,1.11.14,2.59,2.59,0,0,0,1.27-.26.88.88,0,0,0,.44-.8.86.86,0,0,0-.35-.7,5.45,5.45,0,0,0-1.37-.68,7.2,7.2,0,0,1-1.38-.63,1.8,1.8,0,0,1-.61-.62,1.5,1.5,0,0,1-.2-.81,1.57,1.57,0,0,1,.69-1.35,3.27,3.27,0,0,1,1.9-.49,5.42,5.42,0,0,1,2.19.46l-.37.86a5,5,0,0,0-1.9-.44,2.13,2.13,0,0,0-1.13.24.74.74,0,0,0-.38.65.82.82,0,0,0,.14.47,1.53,1.53,0,0,0,.46.38,9.52,9.52,0,0,0,1.22.51,4.41,4.41,0,0,1,1.67.91A1.6,1.6,0,0,1,126,267.56Z"/><path d="M128.59,260.18l.09.13c-.11.43-.27.92-.47,1.48s-.43,1.08-.65,1.57h-.78c.3-1.21.52-2.27.65-3.18Zm2.34,0,.09.13c-.1.39-.26.86-.46,1.43s-.42,1.1-.66,1.62h-.79c.11-.43.23-1,.37-1.62s.24-1.17.29-1.56Z"/><polygon class="cls-3" points="51.1 235.28 198.94 235.28 163.86 279.66 16.03 279.66 51.1 235.28"/><path d="M284.1,249.2a5.12,5.12,0,0,1-1.12,3.51,4,4,0,0,1-3.13,1.27,4,4,0,0,1-3.17-1.25,5.18,5.18,0,0,1-1.11-3.54,5.1,5.1,0,0,1,1.11-3.51,4,4,0,0,1,3.18-1.25A3.94,3.94,0,0,1,283,245.7,5.08,5.08,0,0,1,284.1,249.2Zm-7.39,0a4.43,4.43,0,0,0,.8,2.86,2.87,2.87,0,0,0,2.34,1,2.83,2.83,0,0,0,2.32-1,5.58,5.58,0,0,0,0-5.71,2.83,2.83,0,0,0-2.32-1,2.88,2.88,0,0,0-2.35,1A4.38,4.38,0,0,0,276.71,249.2Z"/><path d="M287,246.9v4.51a1.8,1.8,0,0,0,.38,1.27,1.58,1.58,0,0,0,1.22.42,2,2,0,0,0,1.59-.6,3,3,0,0,0,.51-1.95V246.9h1.05v7h-.87l-.15-.94h-.06a2,2,0,0,1-.9.79,3,3,0,0,1-1.31.27,2.67,2.67,0,0,1-1.9-.6,2.58,2.58,0,0,1-.63-1.93V246.9Z"/><path d="M296.24,253.11a3.12,3.12,0,0,0,.54,0c.17,0,.31,0,.41-.08v.8a1.81,1.81,0,0,1-.5.14,4.54,4.54,0,0,1-.6,0c-1.35,0-2-.71-2-2.12v-4.14h-1v-.51l1-.44.44-1.48h.61v1.61h2v.82h-2v4.09a1.43,1.43,0,0,0,.3,1A1,1,0,0,0,296.24,253.11Z"/><path d="M301.82,254a3,3,0,0,1-1.24-.25,2.33,2.33,0,0,1-.94-.77h-.08a9.56,9.56,0,0,1,.08,1.16V257h-1.06V246.9h.86l.15.95h.05a2.34,2.34,0,0,1,.94-.82,2.89,2.89,0,0,1,1.24-.26,2.59,2.59,0,0,1,2.14.95,5,5,0,0,1,0,5.31A2.54,2.54,0,0,1,301.82,254Zm-.15-6.31a1.83,1.83,0,0,0-1.54.59,3,3,0,0,0-.49,1.88v.23a3.45,3.45,0,0,0,.49,2.1,1.84,1.84,0,0,0,1.56.63,1.64,1.64,0,0,0,1.42-.73,3.48,3.48,0,0,0,.51-2,3.36,3.36,0,0,0-.51-2A1.69,1.69,0,0,0,301.67,247.67Z"/><path d="M307.54,246.9v4.51a1.8,1.8,0,0,0,.39,1.27,1.57,1.57,0,0,0,1.21.42,2,2,0,0,0,1.6-.6,3,3,0,0,0,.5-1.95V246.9h1.05v7h-.86l-.16-.94h0a2.09,2.09,0,0,1-.9.79A3.07,3.07,0,0,1,309,254a2.66,2.66,0,0,1-1.9-.6,2.54,2.54,0,0,1-.64-1.93V246.9Z"/><path d="M316.78,253.11a3.27,3.27,0,0,0,.54,0c.17,0,.31,0,.41-.08v.8a1.9,1.9,0,0,1-.51.14,4.54,4.54,0,0,1-.6,0c-1.34,0-2-.71-2-2.12v-4.14h-1v-.51l1-.44.44-1.48h.61v1.61h2v.82h-2v4.09a1.43,1.43,0,0,0,.3,1A1,1,0,0,0,316.78,253.11Z"/><path d="M278.47,263.36l-.07-.14a12.27,12.27,0,0,1,.45-1.43c.2-.56.43-1.1.66-1.61h.78a30.94,30.94,0,0,0-.65,3.18Zm2.34,0-.09-.14a18.15,18.15,0,0,1,1.13-3h.78c-.13.48-.25,1-.38,1.64s-.21,1.12-.27,1.54Z"/><path d="M286.92,269.46h-1.08v-8.33H282.9v-.95h7v.95h-2.94Z"/><path d="M295.38,269.46l-.21-1h-.06a2.89,2.89,0,0,1-1,.88,3.1,3.1,0,0,1-1.29.23,2.37,2.37,0,0,1-1.63-.53,2,2,0,0,1-.58-1.52c0-1.4,1.12-2.14,3.37-2.21l1.18,0v-.44a1.8,1.8,0,0,0-.35-1.21,1.47,1.47,0,0,0-1.13-.39,4.55,4.55,0,0,0-2,.54l-.32-.81a5,5,0,0,1,1.12-.44,5.19,5.19,0,0,1,1.23-.16,2.66,2.66,0,0,1,1.85.56,2.28,2.28,0,0,1,.6,1.77v4.75Zm-2.39-.75a2.13,2.13,0,0,0,1.55-.54,2,2,0,0,0,.56-1.51V266l-1.05.05a3.83,3.83,0,0,0-1.81.39,1.18,1.18,0,0,0-.56,1.07,1.07,1.07,0,0,0,.35.87A1.42,1.42,0,0,0,293,268.71Z"/><path d="M298.24,260.61a.71.71,0,0,1,.18-.53.64.64,0,0,1,.88,0,.68.68,0,0,1,.18.52.69.69,0,0,1-.18.53.6.6,0,0,1-.44.18.57.57,0,0,1-.44-.18A.69.69,0,0,1,298.24,260.61Zm1.14,8.85h-1.05v-7h1.05Z"/><path d="M302.67,269.46h-1.06v-9.88h1.06Z"/><path d="M309.39,267.56a1.76,1.76,0,0,1-.72,1.5,3.41,3.41,0,0,1-2,.52,4.3,4.3,0,0,1-2.16-.44v-1a5.25,5.25,0,0,0,1.07.4,5,5,0,0,0,1.11.14,2.59,2.59,0,0,0,1.27-.26A.91.91,0,0,0,308,267a5.45,5.45,0,0,0-1.37-.68,7.2,7.2,0,0,1-1.38-.63,1.8,1.8,0,0,1-.61-.62,1.5,1.5,0,0,1-.2-.81,1.57,1.57,0,0,1,.69-1.35,3.27,3.27,0,0,1,1.9-.49,5.42,5.42,0,0,1,2.19.46l-.37.86a5,5,0,0,0-1.9-.44,2.16,2.16,0,0,0-1.13.24.74.74,0,0,0-.38.65.82.82,0,0,0,.14.47,1.53,1.53,0,0,0,.46.38,10.22,10.22,0,0,0,1.22.51,4.47,4.47,0,0,1,1.68.91A1.59,1.59,0,0,1,309.39,267.56Z"/><path d="M312,260.18l.09.13c-.11.43-.27.92-.47,1.48s-.43,1.08-.65,1.57h-.77c.29-1.21.51-2.27.64-3.18Zm2.34,0,.09.13a15,15,0,0,1-.46,1.43q-.3.84-.66,1.62h-.79c.11-.43.23-1,.37-1.62s.24-1.17.3-1.56Z"/><polygon class="cls-3" points="240.01 235.28 387.84 235.28 352.77 279.66 204.94 279.66 240.01 235.28"/><path d="M199.2,177.26V168h1.08v9.28Z"/><path d="M205.8,171.12H204v6.14H203v-6.14h-1.24v-.48l1.24-.38v-.39c0-1.71.75-2.56,2.24-2.56a4.58,4.58,0,0,1,1.3.22l-.27.85a3.6,3.6,0,0,0-1-.2,1,1,0,0,0-.89.4,2.21,2.21,0,0,0-.28,1.27v.45h1.77Z"/><path d="M177,193a3,3,0,0,1-2.33-.93,3.77,3.77,0,0,1-.83-2.63,3.92,3.92,0,0,1,.84-2.69,3,3,0,0,1,2.39-1,5,5,0,0,1,1,.11,3.58,3.58,0,0,1,.78.25l-.32.9a5.22,5.22,0,0,0-.76-.23,3.53,3.53,0,0,0-.73-.09c-1.41,0-2.12.9-2.12,2.7a3.19,3.19,0,0,0,.52,2,1.8,1.8,0,0,0,1.53.68,4.66,4.66,0,0,0,1.78-.37v.93A3.8,3.8,0,0,1,177,193Z"/><path d="M186.38,189.37a3.85,3.85,0,0,1-.86,2.66,3,3,0,0,1-2.37.95,3.12,3.12,0,0,1-1.65-.43,2.92,2.92,0,0,1-1.12-1.26,4.45,4.45,0,0,1-.39-1.92,3.82,3.82,0,0,1,.85-2.65,3.33,3.33,0,0,1,4.68,0A3.86,3.86,0,0,1,186.38,189.37Zm-5.3,0a3.32,3.32,0,0,0,.53,2,1.85,1.85,0,0,0,1.57.7,1.87,1.87,0,0,0,1.57-.69,3.29,3.29,0,0,0,.54-2,3.21,3.21,0,0,0-.54-2,1.89,1.89,0,0,0-1.58-.69,1.86,1.86,0,0,0-1.57.68A3.27,3.27,0,0,0,181.08,189.37Z"/><path d="M188.14,184a.75.75,0,0,1,.17-.53.64.64,0,0,1,.45-.16.61.61,0,0,1,.44.17.68.68,0,0,1,.18.52.69.69,0,0,1-.18.53.62.62,0,0,1-.44.18.61.61,0,0,1-.45-.18A.73.73,0,0,1,188.14,184Zm1.14,8.85h-1.05v-7h1.05Z"/><path d="M196.27,192.86v-4.5a1.8,1.8,0,0,0-.38-1.27,1.6,1.6,0,0,0-1.22-.42,2,2,0,0,0-1.6.59,3,3,0,0,0-.5,2v3.65h-1.06v-7h.86l.17.95h.05a2.13,2.13,0,0,1,.91-.79,2.92,2.92,0,0,1,1.3-.29,2.65,2.65,0,0,1,1.89.61,2.55,2.55,0,0,1,.64,1.94v4.54Z"/><path d="M202.51,187.41v-.87h5.9v.87Zm0,2.6v-.87h5.9V190Z"/><path d="M209.94,187.41v-.87h5.9v.87Zm0,2.6v-.87h5.9V190Z"/><path d="M226.78,188.2a6.75,6.75,0,0,1-.76,3.6,2.81,2.81,0,0,1-4.6,0,6.66,6.66,0,0,1-.78-3.57,6.75,6.75,0,0,1,.76-3.6,2.8,2.8,0,0,1,4.6.06A6.61,6.61,0,0,1,226.78,188.2Zm-5.07,0a6.74,6.74,0,0,0,.48,3,1.58,1.58,0,0,0,1.51.93,1.61,1.61,0,0,0,1.53-.94,9.4,9.4,0,0,0,0-5.87,1.61,1.61,0,0,0-1.53-.93,1.58,1.58,0,0,0-1.51.92A6.69,6.69,0,0,0,221.71,188.2Z"/><polygon class="cls-3" points="270.11 181.25 201.94 212.66 133.76 181.25 201.94 149.84 270.11 181.25"/><line x1="201.94" y1="45.25" x2="201.94" y2="67.87"/><line class="cls-3" x1="201.94" y1="45.25" x2="201.94" y2="60.69"/><polygon points="196.95 59.23 201.94 67.87 206.92 59.23 196.95 59.23"/><line x1="201.94" y1="127.22" x2="201.94" y2="149.84"/><line class="cls-3" x1="201.94" y1="127.22" x2="201.94" y2="142.66"/><polygon points="196.95 141.21 201.94 149.84 206.92 141.21 196.95 141.21"/><line x1="259.13" y1="185.81" x2="259.13" y2="235.27"/><line class="cls-3" x1="259.13" y1="185.81" x2="259.13" y2="228.1"/><polygon points="254.14 226.64 259.13 235.28 264.12 226.64 254.14 226.64"/><line x1="265.19" y1="279.66" x2="238.58" y2="306.28"/><line class="cls-3" x1="265.19" y1="279.66" x2="243.65" y2="301.21"/><polygon points="241.16 296.65 238.58 306.28 248.21 303.7 241.16 296.65"/><line x1="138.55" y1="279.66" x2="165.17" y2="306.28"/><line class="cls-3" x1="138.55" y1="279.66" x2="160.09" y2="301.21"/><polygon points="155.53 303.7 165.17 306.28 162.59 296.65 155.53 303.7"/><line x1="144.55" y1="185.81" x2="144.55" y2="235.27"/><line class="cls-3" x1="144.55" y1="185.81" x2="144.55" y2="228.1"/><polygon points="139.56 226.64 144.55 235.28 149.53 226.64 139.56 226.64"/></svg>